<svg width="25" height="19" viewBox="0 0 25 19" fill="none" xmlns="http://www.w3.org/2000/svg">
<path d="M19.808 0.159973H5.19195C3.80291 0.17212 2.47557 0.735528 1.5019 1.72626C0.528224 2.717 -0.0120358 4.05393 -4.88485e-05 5.44298V12.877C-0.0120358 14.266 0.528224 15.603 1.5019 16.5937C2.47557 17.5844 3.80291 18.1478 5.19195 18.16H19.808C21.197 18.1478 22.5243 17.5844 23.498 16.5937C24.4717 15.603 25.0119 14.266 25 12.877V5.44298C25.0119 4.05393 24.4717 2.717 23.498 1.72626C22.5243 0.735528 21.197 0.17212 19.808 0.159973ZM16.2999 9.52197L9.45995 12.839C9.41776 12.859 9.37115 12.868 9.32453 12.865C9.27791 12.8621 9.23281 12.8473 9.19349 12.8221C9.15416 12.7969 9.12191 12.7621 9.09977 12.7209C9.07763 12.6798 9.06634 12.6337 9.06695 12.587V5.74497C9.06625 5.69756 9.07782 5.65078 9.10053 5.60916C9.12325 5.56754 9.15634 5.5325 9.19659 5.50745C9.23684 5.48239 9.28289 5.46817 9.33026 5.46616C9.37764 5.46415 9.42472 5.47441 9.46695 5.49597L16.2999 9.02097C16.3462 9.04448 16.385 9.08032 16.4121 9.12453C16.4393 9.16875 16.4536 9.21961 16.4536 9.27148C16.4536 9.32335 16.4393 9.37421 16.4121 9.41842C16.385 9.46263 16.3462 9.49847 16.2999 9.52197Z" fill="white"/>
</svg>

