<svg width="19" height="19" viewBox="0 0 19 19" fill="none" xmlns="http://www.w3.org/2000/svg">
<path d="M17.171 0.16016H1.83005C1.65784 0.157248 1.48676 0.188322 1.32657 0.251602C1.16639 0.314883 1.02026 0.409128 0.896542 0.528946C0.772823 0.648764 0.673946 0.791802 0.605567 0.949874C0.537189 1.10795 0.500652 1.27795 0.498047 1.45016L0.498047 16.8702C0.500783 17.0423 0.537409 17.2123 0.605833 17.3703C0.674257 17.5283 0.773139 17.6713 0.896831 17.7911C1.02052 17.9109 1.1666 18.0051 1.32672 18.0684C1.48685 18.1318 1.65788 18.1629 1.83005 18.1602H17.171C17.518 18.1647 17.8525 18.0314 18.1013 17.7896C18.3501 17.5477 18.4928 17.2171 18.498 16.8702V1.45016C18.4928 1.10324 18.3501 0.77258 18.1013 0.530736C17.8525 0.288891 17.518 0.155618 17.171 0.16016ZM5.95705 15.2272H3.23705V7.10016H5.95705V15.2272ZM4.59805 5.99016H4.57905C4.38462 6.00396 4.18944 5.97728 4.00585 5.91179C3.82226 5.8463 3.65426 5.74343 3.51247 5.60968C3.37067 5.47594 3.25817 5.31423 3.18207 5.13478C3.10597 4.95533 3.06794 4.76204 3.07037 4.56714C3.0728 4.37223 3.11564 4.17995 3.19619 4.00246C3.27673 3.82496 3.39323 3.6661 3.53832 3.53593C3.6834 3.40577 3.85391 3.30712 4.03908 3.24622C4.22424 3.18533 4.42002 3.16351 4.61405 3.18216C4.80845 3.16689 5.00391 3.19214 5.18806 3.25632C5.3722 3.32049 5.54102 3.42219 5.68383 3.55498C5.82664 3.68777 5.94033 3.84876 6.0177 4.02775C6.09508 4.20675 6.13446 4.39986 6.13335 4.59486C6.13224 4.78987 6.09066 4.98251 6.01125 5.16062C5.93184 5.33872 5.81632 5.4984 5.67201 5.62956C5.52769 5.76071 5.35773 5.86048 5.17287 5.92255C4.988 5.98462 4.79227 6.00764 4.59805 5.99016ZM15.761 15.2272H13.042V10.8792C13.042 9.78616 12.648 9.04116 11.665 9.04116C11.3589 9.04213 11.0606 9.13768 10.8109 9.31471C10.5612 9.49175 10.3723 9.74163 10.27 10.0302C10.1995 10.242 10.1687 10.4651 10.179 10.6882V15.2272H7.46105C7.46105 15.2272 7.49805 7.86016 7.46105 7.10016H10.18V8.25216C10.4271 7.82616 10.786 7.47584 11.2178 7.23912C11.6497 7.0024 12.138 6.8883 12.63 6.90916C14.419 6.90916 15.761 8.07016 15.761 10.5672V15.2272ZM10.161 8.27816L10.179 8.25216V8.27816H10.161Z" fill="white"/>
</svg>

