<svg width="19" height="19" viewBox="0 0 19 19" fill="none" xmlns="http://www.w3.org/2000/svg">
<path d="M17.543 4.75498C16.7645 3.36716 15.6347 2.20843 14.267 1.39498C12.9038 0.575263 11.3407 0.147891 9.75003 0.159984C8.15904 0.147758 6.59558 0.575133 5.23203 1.39498C3.8647 2.20853 2.73528 3.36726 1.95703 4.75498C1.15339 6.16485 0.736973 7.76221 0.750034 9.38498C0.729221 11.3298 1.33085 13.2304 2.46703 14.809C3.549 16.3675 5.10408 17.5362 6.90203 18.142C6.98118 18.1669 7.06518 18.1722 7.14685 18.1576C7.22853 18.143 7.30544 18.1088 7.37103 18.058C7.42045 18.0122 7.45956 17.9564 7.48577 17.8943C7.51198 17.8323 7.52468 17.7653 7.52303 17.698L7.51703 17.049C7.51303 16.6403 7.51103 16.284 7.51103 15.98L7.24103 16.028C7.02624 16.063 6.80855 16.0771 6.59103 16.07C6.31782 16.065 6.04551 16.0369 5.77703 15.986C5.49003 15.9315 5.22061 15.8079 4.99203 15.626C4.74946 15.4373 4.56959 15.1797 4.47603 14.887L4.35903 14.611C4.261 14.3917 4.13713 14.1849 3.99003 13.995C3.85958 13.8038 3.68454 13.6473 3.48003 13.539L3.39803 13.479C3.34175 13.4373 3.29071 13.3889 3.24603 13.335C3.20279 13.2846 3.1674 13.2279 3.14103 13.167C3.1177 13.111 3.13737 13.065 3.20003 13.029C3.30758 12.9846 3.42404 12.9661 3.54003 12.975L3.77403 13.011C3.9841 13.0688 4.18103 13.1666 4.35403 13.299C4.58727 13.4623 4.78129 13.6755 4.92203 13.923C5.07553 14.2217 5.29843 14.4792 5.57203 14.674C5.79551 14.836 6.06308 14.926 6.33903 14.932C6.56317 14.9351 6.78703 14.9149 7.00703 14.872C7.18937 14.8336 7.36634 14.7732 7.53403 14.692C7.57165 14.2244 7.77524 13.7856 8.10803 13.455C7.70304 13.4142 7.30183 13.342 6.90803 13.239C6.52296 13.1299 6.15332 12.9723 5.80803 12.77C5.4443 12.5677 5.12389 12.2959 4.86503 11.97C4.58526 11.5893 4.37689 11.161 4.25003 10.706C4.08123 10.1212 4.00035 9.51457 4.01003 8.90598C3.98901 7.99261 4.32064 7.10625 4.93603 6.43098C4.64778 5.63408 4.67714 4.75683 5.01803 3.98098C5.36271 3.92391 5.7166 3.98078 6.02603 4.14298C6.36388 4.27169 6.69121 4.42649 7.00503 4.60598C7.21237 4.73398 7.37903 4.84198 7.50503 4.92998C8.97616 4.51372 10.5339 4.51372 12.005 4.92998L12.45 4.64198C12.7915 4.43141 13.1525 4.25426 13.528 4.11298C13.8217 3.9662 14.1555 3.91983 14.478 3.98098C14.8257 4.7546 14.8594 5.633 14.572 6.43098C15.1873 7.1063 15.519 7.99263 15.498 8.90598C15.5075 9.51718 15.4266 10.1264 15.258 10.714C15.1323 11.1697 14.9216 11.5975 14.637 11.975C14.3742 12.2993 14.0521 12.5707 13.688 12.775C13.3427 12.9773 12.9731 13.1348 12.588 13.244C12.1943 13.3474 11.7931 13.4199 11.388 13.461C11.6065 13.6847 11.774 13.9529 11.8792 14.2474C11.9843 14.5418 12.0245 14.8555 11.997 15.167V17.695C11.9953 17.7619 12.0075 17.8284 12.0328 17.8904C12.0581 17.9524 12.096 18.0084 12.144 18.055C12.2084 18.1059 12.2843 18.1402 12.365 18.1549C12.4458 18.1695 12.5289 18.1641 12.607 18.139C14.4054 17.5335 15.9609 16.3648 17.043 14.806C18.1749 13.2269 18.773 11.3277 18.75 9.38498C18.7628 7.76224 18.3464 6.16496 17.543 4.75498Z" fill="white"/>
</svg>

