<svg width="18" height="19" viewBox="0 0 18 19" fill="none" xmlns="http://www.w3.org/2000/svg">
<path d="M18 3.15997C17.9729 2.37296 17.6481 1.62557 17.0912 1.06873C16.5344 0.511897 15.787 0.187114 15 0.159973L3 0.159973C2.21299 0.187114 1.46559 0.511897 0.908758 1.06873C0.351924 1.62557 0.0271409 2.37296 0 3.15997L0 15.16C0.0271409 15.947 0.351924 16.6944 0.908758 17.2512C1.46559 17.808 2.21299 18.1328 3 18.16H9V11.36H6.8V8.35997H9V7.19097C8.96075 6.24061 9.28979 5.31177 9.91856 4.59805C10.5473 3.88434 11.4273 3.44083 12.375 3.35997H14.8V6.35997H12.375C12.11 6.35997 11.8 6.68197 11.8 7.15997V8.35997H14.8V11.36H11.8V18.16H15C15.787 18.1328 16.5344 17.808 17.0912 17.2512C17.6481 16.6944 17.9729 15.947 18 15.16V3.15997Z" fill="white"/>
</svg>

