<svg width="23" height="19" viewBox="0 0 23 19" fill="none" xmlns="http://www.w3.org/2000/svg">
<path d="M22.249 2.28996C21.4263 2.65754 20.5528 2.89892 19.658 3.00596C20.6014 2.43571 21.3063 1.54295 21.642 0.492964C20.7556 1.02022 19.7857 1.39223 18.774 1.59297C18.155 0.928139 17.3495 0.465857 16.4631 0.266706C15.5768 0.0675558 14.651 0.140828 13.807 0.476923C12.9631 0.813018 12.2403 1.39625 11.7335 2.15018C11.2268 2.90411 10.9596 3.79357 10.967 4.70197C10.9665 5.05062 11.0058 5.3982 11.084 5.73797C9.28685 5.64544 7.52947 5.1745 5.92685 4.35596C4.32424 3.53741 2.9125 2.38972 1.78402 0.987967C1.20779 1.98921 1.03185 3.17144 1.29155 4.29709C1.55126 5.42274 2.22737 6.40839 3.18402 7.05596C2.46685 7.03174 1.76592 6.83593 1.14002 6.48496V6.54197C1.13782 7.58814 1.49683 8.60299 2.1564 9.41506C2.81596 10.2271 3.73563 10.7866 4.76002 10.999C4.37247 11.1043 3.97265 11.1578 3.57102 11.158C3.2856 11.1582 3.00087 11.1301 2.72102 11.074C3.00564 11.9746 3.56526 12.7635 4.32127 13.3297C5.07728 13.896 5.99168 14.2111 6.93602 14.231C5.34181 15.4915 3.36837 16.1762 1.33602 16.174C0.972938 16.1764 0.610012 16.158 0.249023 16.119C2.19306 17.3729 4.44029 18.0771 6.75226 18.157C9.06423 18.2368 11.3547 17.6893 13.3806 16.5726C15.4066 15.4558 17.0924 13.8114 18.2592 11.8139C19.426 9.81635 20.0303 7.54021 20.008 5.22696L19.993 4.63896C20.8809 3.99885 21.6453 3.20296 22.249 2.28996Z" fill="white"/>
</svg>

