<svg width="40" height="42" viewBox="0 0 40 42" fill="none" xmlns="http://www.w3.org/2000/svg">
<path d="M37.9981 34.0507H25.6372C25.0319 32.3523 23.6949 31.0159 21.9981 30.4133V24.0559H28.3386C33.1188 24.2121 37.12 20.4681 37.2788 15.6902C37.4102 11.6982 34.7907 8.13269 30.9383 7.06403C28.2121 1.02648 21.1051 -1.66128 15.0648 1.06367C11.3141 2.75468 8.69457 6.24828 8.11907 10.3196C4.39566 11.3635 2.22512 15.224 3.26946 18.9457C4.11535 21.9633 6.86388 24.0485 9.99938 24.0535H17.9994V30.4109C16.3002 31.0159 14.9631 32.3523 14.3603 34.0483H1.99938C0.895504 34.0483 0 34.9434 0 36.0467C0 37.1501 0.895504 38.0452 1.99938 38.0452H14.3603C15.4915 41.1594 18.9321 42.7661 22.0478 41.6355C23.7172 41.0305 25.0344 39.7139 25.6397 38.0452H38.0006C39.1045 38.0452 40 37.1501 40 36.0467C40 34.9434 39.1045 34.0483 38.0006 34.0483L37.9981 34.0507ZM9.99938 20.0565C8.34233 20.0565 7.00031 18.7151 7.00031 17.0588C7.00031 15.4025 8.34233 14.0611 9.99938 14.0611C11.1033 14.0611 11.9988 13.166 11.9988 12.0627C11.9864 7.64671 15.5584 4.05641 19.9764 4.04401C23.4171 4.0341 26.4781 6.22596 27.5795 9.484C27.8127 10.1832 28.413 10.699 29.1398 10.8229C31.3749 11.1948 33.0121 13.1338 32.9997 15.4001C32.9898 17.9688 30.9085 20.0466 28.3386 20.059H9.99938V20.0565ZM19.9988 38.0477C18.8949 38.0477 17.9994 37.1526 17.9994 36.0492C17.9994 34.9458 18.8949 34.0507 19.9988 34.0507C21.1026 34.0507 21.9981 34.9458 21.9981 36.0492C21.9981 37.1526 21.1026 38.0477 19.9988 38.0477Z" fill="#65A300"/>
</svg>
