<svg width="50" height="38" viewBox="0 0 50 38" fill="none" xmlns="http://www.w3.org/2000/svg">
<path d="M12.5 25.3333H19.9995C21.3799 25.3333 22.4984 24.1999 22.4984 22.8011C22.4984 21.4022 21.3799 20.2688 19.9995 20.2688H12.5C11.1196 20.2688 10.001 21.4022 10.001 22.8011C10.001 24.1999 11.1196 25.3333 12.5 25.3333ZM42.5005 0H7.49948C3.35813 0 0 3.40291 0 7.59947V30.4005C0 34.5971 3.35813 38 7.49948 38H42.5005C46.6419 38 50 34.5971 50 30.4005V7.59947C50 3.40291 46.6419 0 42.5005 0ZM44.9995 30.4005C44.9995 31.7994 43.881 32.9328 42.5005 32.9328H7.49948C6.11903 32.9328 5.00052 31.7994 5.00052 30.4005V15.2016H44.9995V30.4005ZM44.9995 10.1344H5.00052V7.60212C5.00052 6.20327 6.11903 5.06985 7.49948 5.06985H42.5005C43.881 5.06985 44.9995 6.20327 44.9995 7.60212V10.1344Z" fill="#65A300"/>
</svg>
