<svg width="55" height="35" viewBox="0 0 55 35" fill="none" xmlns="http://www.w3.org/2000/svg">
<path d="M37.5 8.75C32.675 8.75 28.75 12.675 28.75 17.5C28.75 22.325 32.675 26.25 37.5 26.25C42.325 26.25 46.25 22.325 46.25 17.5C46.25 12.675 42.325 8.75 37.5 8.75ZM37.5 21.25C35.425 21.25 33.75 19.575 33.75 17.5C33.75 15.425 35.425 13.75 37.5 13.75C39.575 13.75 41.25 15.425 41.25 17.5C41.25 19.575 39.575 21.25 37.5 21.25ZM37.5 0H17.5C7.825 0 0 7.825 0 17.5C0 27.175 7.825 35 17.5 35H37.5C47.175 35 55 27.175 55 17.5C55 7.825 47.175 0 37.5 0ZM37.5 30H17.5C10.6 30 5 24.4 5 17.5C5 10.6 10.6 5 17.5 5H37.5C44.4 5 50 10.6 50 17.5C50 24.4 44.4 30 37.5 30Z" fill="#65A300"/>
</svg>
