<svg width="34" height="42" viewBox="0 0 34 42" fill="none" xmlns="http://www.w3.org/2000/svg">
<path d="M33.2137 3.46673C32.7038 3.06753 32.0662 2.92046 31.4287 3.04652C26.8387 3.992 22.0575 3.04652 18.2113 0.378189C17.4888 -0.126063 16.5112 -0.126063 15.7887 0.378189C11.9425 3.02551 7.16125 3.992 2.57125 3.04652C1.93375 2.92046 1.29625 3.04652 0.78625 3.46673C0.2975 3.86593 0 4.47524 0 5.10555V20.7584C0 26.8724 2.975 32.6083 8.01125 36.1591L15.7675 41.6218C16.5112 42.1471 17.4888 42.1471 18.2325 41.6218L25.9887 36.1591C31.025 32.6083 34 26.8724 34 20.7584V5.10555C34 4.47524 33.7025 3.86593 33.2137 3.46673ZM29.75 20.7584C29.75 25.5068 27.4338 29.961 23.5238 32.7344L17 37.3357L10.4762 32.7344C6.56625 29.961 4.25 25.5068 4.25 20.7584V7.52176C8.7125 7.89995 13.175 6.87044 17 4.6013C20.825 6.87044 25.2875 7.89995 29.75 7.52176V20.7584ZM20.2725 15.947L14.5562 21.6198L12.665 19.7289C11.8363 18.9095 10.4762 18.9095 9.6475 19.7289C8.81875 20.5483 8.81875 21.8929 9.6475 22.7124L13.0475 26.074C13.8762 26.8934 15.215 26.8934 16.0438 26.074L23.3538 18.9095C24.1825 18.09 24.1825 16.7454 23.3538 15.926C22.525 15.1066 21.165 15.1066 20.3363 15.926H20.2512L20.2725 15.947Z" fill="#65A300"/>
</svg>
