<svg width="25" height="25" viewBox="0 0 25 25" fill="none" xmlns="http://www.w3.org/2000/svg">
<path d="M0.156344 13.2928C0.25554 13.5483 0.404281 13.7818 0.594028 13.9797L11.015 24.3878C11.2093 24.5819 11.44 24.7359 11.694 24.8409C11.9479 24.9459 12.22 25 12.4948 25C13.0498 25 13.5821 24.7798 13.9746 24.3878C14.1689 24.1937 14.3231 23.9633 14.4282 23.7097C14.5334 23.4561 14.5875 23.1843 14.5875 22.9099C14.5875 22.3555 14.367 21.8239 13.9746 21.4319L7.09673 14.5834L22.9158 14.5834C23.4686 14.5834 23.9987 14.3641 24.3896 13.9737C24.7804 13.5833 25 13.0539 25 12.5018C25 11.9497 24.7804 11.4202 24.3896 11.0298C23.9987 10.6395 23.4686 10.4202 22.9158 10.4202L7.09673 10.4202L13.9746 3.57163C14.1699 3.37812 14.325 3.14789 14.4308 2.89423C14.5366 2.64056 14.5911 2.36849 14.5911 2.09369C14.5911 1.81889 14.5366 1.54681 14.4308 1.29315C14.325 1.03948 14.1699 0.809253 13.9746 0.615739C13.7808 0.420632 13.5503 0.265769 13.2963 0.160088C13.0424 0.0544061 12.7699 -1.06919e-06 12.4948 -1.09324e-06C12.2197 -1.11729e-06 11.9472 0.054406 11.6933 0.160088C11.4393 0.265769 11.2088 0.420632 11.015 0.615739L0.594028 11.0238C0.404281 11.2218 0.25554 11.4552 0.156345 11.7108C-0.0521134 12.2176 -0.0521134 12.786 0.156344 13.2928Z" fill="#65A300"/>
</svg>
