<svg width="25" height="25" viewBox="0 0 25 25" fill="none" xmlns="http://www.w3.org/2000/svg">
<path d="M24.8437 11.7072C24.7445 11.4517 24.5957 11.2182 24.406 11.0203L13.985 0.612187C13.7907 0.4181 13.56 0.264142 13.306 0.159103C13.0521 0.0540636 12.78 0 12.5052 0C11.9502 0 11.4179 0.22021 11.0254 0.612187C10.8311 0.806274 10.6769 1.03669 10.5718 1.29028C10.4666 1.54386 10.4125 1.81565 10.4125 2.09014C10.4125 2.64447 10.633 3.17611 11.0254 3.56808L17.9033 10.4166L2.0842 10.4166C1.53144 10.4166 1.00131 10.6359 0.610448 11.0263C0.219585 11.4167 0 11.9461 0 12.4982C0 13.0503 0.219585 13.5798 0.610448 13.9701C1.00131 14.3605 1.53144 14.5798 2.0842 14.5798L17.9033 14.5798L11.0254 21.4284C10.8301 21.6219 10.675 21.8521 10.5692 22.1058C10.4634 22.3594 10.4089 22.6315 10.4089 22.9063C10.4089 23.1811 10.4634 23.4532 10.5692 23.7069C10.675 23.9605 10.8301 24.1907 11.0254 24.3843C11.2192 24.5794 11.4497 24.7342 11.7037 24.8399C11.9576 24.9456 12.2301 25 12.5052 25C12.7803 25 13.0528 24.9456 13.3067 24.8399C13.5607 24.7342 13.7912 24.5794 13.985 24.3843L24.406 13.9762C24.5957 13.7782 24.7445 13.5448 24.8437 13.2892C25.0521 12.7824 25.0521 12.214 24.8437 11.7072Z" fill="#65A300"/>
</svg>
