<svg width="160" height="43" viewBox="0 0 160 43" fill="none" xmlns="http://www.w3.org/2000/svg">
<path d="M150.813 29.0571H159.954C159.969 28.6825 159.982 28.3074 159.982 27.9297C159.974 20.5907 157.056 13.5544 151.869 8.36235C146.683 3.1703 139.649 0.245934 132.31 0.22998V9.3606C137.23 9.36817 141.946 11.328 145.422 14.8098C148.898 18.2915 150.85 23.0105 150.849 27.9303C150.849 28.3062 150.837 28.682 150.813 29.0571Z" fill="#65A300"/>
<path d="M45.5757 42.4579C44.8307 42.2947 44.1038 42.0585 43.4054 41.7519C42.8727 41.5097 42.3558 41.2336 41.8579 40.9262C41.5015 40.7138 41.1638 40.4717 40.8485 40.2021L40.5457 39.8996L42.3631 37.208L42.6169 37.4616C42.8399 37.661 43.0753 37.8461 43.3216 38.0157C43.6951 38.2875 44.0891 38.53 44.5003 38.7404C45.6205 39.2728 46.8434 39.5543 48.0837 39.5655C49.9237 39.5655 51.2529 39.1565 52.0713 38.3381C52.5043 37.8593 52.8364 37.2979 53.0476 36.6879C53.2589 36.0779 53.345 35.4313 53.3009 34.7873V33.3411C53.2369 33.4337 53.1692 33.5236 53.0979 33.6107C52.8981 33.8311 52.6847 34.0386 52.4592 34.2325C52.1235 34.5343 51.7564 34.7994 51.3642 35.0229C50.8533 35.2924 50.3103 35.496 49.7481 35.6285C49.0381 35.8117 48.3072 35.9015 47.5739 35.8957C45.3357 35.981 43.1537 35.183 41.4985 33.674C39.9175 32.1928 39.1263 30.0726 39.125 27.3126C39.0782 26.1564 39.2692 25.0024 39.6862 23.923C40.1032 22.8435 40.7373 21.8612 41.5493 21.0367C42.3259 20.2515 43.2546 19.6336 44.2786 19.2198C45.3025 18.806 46.4001 18.6051 47.5042 18.6303C48.6231 18.6127 49.7336 18.8247 50.7675 19.2527C51.5065 19.5225 52.1827 19.9402 52.7544 20.4807L53.2933 21.0876V18.9006H56.9324V34.1779C56.9324 39.8986 54.0381 42.7596 48.2493 42.7604H48.2265C47.3343 42.7603 46.445 42.6586 45.5757 42.4579ZM44.1589 23.2925C43.198 24.3932 42.6978 25.8219 42.7623 27.2816C42.7027 28.7354 43.2159 30.1544 44.1913 31.2341C44.6766 31.7448 45.2656 32.1458 45.9187 32.41C46.5718 32.6742 47.2738 32.7955 47.9776 32.7658C48.7012 32.7991 49.4238 32.6836 50.1008 32.4261C50.7778 32.1686 51.3947 31.7744 51.9132 31.2688C52.4156 30.7381 52.8058 30.1116 53.06 29.4264C53.3143 28.7413 53.4275 28.0122 53.3929 27.2822C53.4225 26.5495 53.3036 25.8179 53.0433 25.1324C52.783 24.4469 52.3868 23.8215 51.8784 23.2932C51.3626 22.7815 50.7469 22.3811 50.0698 22.1178C49.3927 21.8545 48.6687 21.7339 47.9428 21.7626C47.239 21.7288 46.5363 21.8476 45.883 22.1116C45.2298 22.3756 44.6416 22.7793 44.1589 23.2925ZM0.019043 42.3916V18.9012H3.6532V21.1551C3.6989 21.0916 3.77063 20.9925 3.87156 20.87C4.07934 20.644 4.30455 20.4346 4.54508 20.2439C4.89827 19.9469 5.28104 19.6874 5.68755 19.469C6.22436 19.2027 6.78844 18.9955 7.3698 18.8503C8.08898 18.6578 8.83042 18.5612 9.57493 18.5633C10.6783 18.525 11.7775 18.7196 12.8007 19.1343C13.824 19.5489 14.7485 20.1742 15.514 20.9698C16.2972 21.8231 16.9039 22.8226 17.2995 23.9112C17.695 24.9998 17.8715 26.1561 17.8188 27.3132C17.8188 30.074 17.0506 32.2387 15.514 33.8079C14.7196 34.5992 13.7695 35.2178 12.7242 35.6236C11.6788 36.0293 10.5607 36.2134 9.44042 36.1653C8.71354 36.1704 7.98914 36.0798 7.28596 35.8957C6.70758 35.7563 6.15199 35.5354 5.63563 35.2398C5.24978 35.0094 4.87876 34.7555 4.52478 34.4786C4.27462 34.2945 4.04836 34.0795 3.85126 33.8395L3.64808 33.5704V42.3885L0.019043 42.3916ZM5.03387 23.2746C4.02096 24.3965 3.48914 25.8712 3.55293 27.3814C3.51134 28.1352 3.62079 28.8897 3.87512 29.6006C4.12945 30.3115 4.52351 30.9647 5.03387 31.5211C5.56076 32.0358 6.18833 32.4358 6.87729 32.6964C7.56625 32.957 8.30165 33.0726 9.03733 33.0355C9.73709 33.0677 10.4352 32.9442 11.0813 32.6735C11.7274 32.4027 12.3053 31.9917 12.773 31.4702C13.7242 30.3384 14.2166 28.8913 14.153 27.4142C14.2161 25.909 13.7054 24.4358 12.7242 23.2925C12.2492 22.7643 11.6636 22.3471 11.0092 22.0707C10.3548 21.7943 9.64752 21.6653 8.93768 21.6932C8.2117 21.6631 7.48774 21.7888 6.81422 22.0614C6.14069 22.334 5.53311 22.7473 5.03247 23.2739L5.03387 23.2746ZM133.106 36.386C130.033 36.386 127.661 35.5839 125.988 33.9796C124.316 32.3753 123.48 30.1711 123.481 27.3671C123.436 26.1691 123.641 24.9747 124.081 23.8597C124.521 22.7448 125.188 21.7334 126.039 20.8892C126.893 20.0578 127.906 19.407 129.017 18.9762C130.128 18.5453 131.314 18.3432 132.505 18.3817C135.331 18.3817 137.546 19.2565 139.151 21.0063C140.755 22.7562 141.558 25.1672 141.559 28.2387V29.1134H128.832C128.836 29.2279 128.853 29.3418 128.883 29.4525C128.964 29.6984 129.07 29.9347 129.2 30.1585C129.38 30.4967 129.613 30.8041 129.89 31.0685C130.263 31.3917 130.697 31.6376 131.166 31.7926C131.81 32.0156 132.488 32.1231 133.169 32.11C134.013 32.1123 134.849 31.9462 135.628 31.6209C136.252 31.391 136.832 31.0553 137.342 30.629L137.85 30.1213L140.61 33.3498C140.546 33.4393 140.447 33.5511 140.325 33.6895C140.052 33.9529 139.759 34.1948 139.449 34.4135C138.984 34.7648 138.489 35.0743 137.969 35.3384C137.297 35.6581 136.592 35.9015 135.866 36.0631C134.976 36.2751 134.065 36.3817 133.15 36.3804L133.106 36.386ZM130.885 22.9231C130.473 23.0834 130.103 23.3367 129.805 23.6632C129.574 23.9336 129.37 24.2271 129.199 24.5391C129.064 24.7669 128.973 25.018 128.931 25.2793L128.862 25.5818H136.167C136.144 25.4974 136.123 25.3857 136.099 25.2644C136.03 25.0194 135.934 24.7829 135.814 24.5584C135.655 24.2245 135.445 23.9172 135.191 23.6484C134.88 23.3468 134.513 23.1071 134.112 22.9423C133.603 22.7213 133.052 22.613 132.496 22.6249H132.419C131.893 22.6232 131.371 22.7246 130.883 22.9225L130.885 22.9231ZM89.5448 35.4574C89.2571 35.177 89.0283 34.8419 88.872 34.4718C88.7158 34.1017 88.6353 33.7038 88.6351 33.302C88.6353 32.9004 88.716 32.5029 88.8722 32.1329C89.0284 31.7629 89.2571 31.4281 89.5448 31.1479C89.8384 30.8617 90.186 30.6367 90.5675 30.4865C90.949 30.3363 91.3566 30.264 91.7665 30.2732C92.1763 30.2647 92.5837 30.3375 92.9651 30.4877C93.3465 30.6379 93.6942 30.8623 93.9882 31.1479C94.2762 31.4279 94.505 31.7628 94.6613 32.1329C94.8175 32.503 94.8979 32.9003 94.8978 33.302C94.898 33.7038 94.8175 34.1016 94.6613 34.4718C94.505 34.8419 94.2762 35.1773 93.9882 35.4574C93.3856 36.0206 92.5913 36.3333 91.7665 36.3321C90.9408 36.3338 90.1453 36.0208 89.5422 35.4568L89.5448 35.4574ZM67.3276 36.3147C66.2164 36.3562 65.1077 36.1781 64.0653 35.7909C63.0228 35.4037 62.0669 34.8151 61.2522 34.0583C59.6694 32.5543 58.8795 30.3999 58.8824 27.5959C58.83 26.4216 59.0179 25.2496 59.4345 24.1505C59.851 23.0513 60.4874 22.0487 61.3048 21.2041C62.0793 20.4148 63.0072 19.7922 64.0313 19.3754C65.0555 18.9586 66.1541 18.7561 67.2596 18.7803C68.3791 18.7627 69.4903 18.9747 70.5249 19.4027C71.2633 19.6726 71.9388 20.0903 72.5098 20.6307L73.0482 21.2376V19.0828H76.6822V36.0451H73.0482V33.7223C73.0025 33.789 72.9358 33.8856 72.845 34.0075C72.6514 34.2346 72.437 34.4427 72.2045 34.6299C71.8667 34.9237 71.5006 35.1838 71.1115 35.4053C70.5995 35.6764 70.0568 35.8849 69.4953 36.0271C68.8008 36.2178 68.0839 36.3144 67.3637 36.3141L67.3276 36.3147ZM63.9118 23.4587C62.9451 24.5883 62.4457 26.0443 62.5154 27.5295C62.4543 29.0199 62.9655 30.4773 63.9442 31.6029C64.422 32.1265 65.0084 32.5392 65.6624 32.8123C66.3165 33.0855 67.0225 33.2126 67.7307 33.1843C68.4589 33.2203 69.1866 33.1042 69.8674 32.8433C70.5481 32.5824 71.167 32.182 71.6846 31.6686C72.19 31.1096 72.5797 30.4562 72.8309 29.7457C73.0822 29.0352 73.1901 28.282 73.1485 27.5295C73.1817 26.7843 73.065 26.04 72.8052 25.3407C72.5454 24.6414 72.1476 24.0014 71.6358 23.4587C71.1222 22.9428 70.5073 22.5388 69.83 22.2722C69.1527 22.0055 68.4276 21.8817 67.7002 21.9089C66.994 21.8754 66.289 21.997 65.6347 22.2647C64.9804 22.5325 64.3925 22.9403 63.9125 23.4593L63.9118 23.4587ZM27.8204 36.3147C26.7091 36.3564 25.6005 36.1788 24.558 35.7915C23.5156 35.4043 22.5596 34.8153 21.7449 34.0583C20.1639 32.5543 19.3728 30.3999 19.3715 27.5959C19.3194 26.4215 19.5075 25.249 19.9243 24.1499C20.3411 23.0507 20.978 22.0486 21.7958 21.2041C22.5702 20.4148 23.4981 19.7922 24.5222 19.3754C25.5464 18.9586 26.645 18.7561 27.7505 18.7803C28.87 18.7627 29.9812 18.9747 31.0158 19.4027C31.7543 19.6725 32.4298 20.0902 33.0007 20.6307L33.5397 21.2376V19.0828H37.1737L37.1776 36.0451H33.5416V33.7223C33.4768 33.8189 33.4098 33.9141 33.3405 34.0075C33.1466 34.2343 32.9321 34.4424 32.6999 34.6299C32.3618 34.9233 31.9955 35.1833 31.6067 35.4053C31.0941 35.676 30.5513 35.8845 29.9894 36.0271C29.2954 36.2178 28.5789 36.3144 27.8592 36.3141L27.8204 36.3147ZM24.4015 23.4587C23.4338 24.5878 22.9341 26.0441 23.0049 27.5295C22.944 29.0196 23.4544 30.4766 24.4319 31.6029C24.9094 32.1267 25.4958 32.5398 26.1499 32.8129C26.8041 33.0861 27.5101 33.2129 28.2184 33.1843C28.9466 33.2203 29.6742 33.1042 30.355 32.8433C31.0358 32.5824 31.6548 32.182 32.1724 31.6686C32.6785 31.1101 33.0685 30.4569 33.3198 29.7463C33.5711 29.0357 33.6786 28.2821 33.6361 27.5295C33.6691 26.7842 33.5521 26.04 33.2919 25.3407C33.0318 24.6414 32.6337 24.0012 32.1216 23.4587C31.6082 22.9425 30.9935 22.5382 30.3161 22.2716C29.6387 22.0049 28.9135 21.8813 28.186 21.9089C27.4803 21.8757 26.776 21.9976 26.1222 22.2654C25.4684 22.5331 24.8812 22.94 24.4015 23.4587ZM117.12 36.0519V25.451C117.12 23.6775 116.469 22.7918 115.168 22.7935C113.552 22.7935 112.744 23.9707 112.744 26.3257V36.0525H107.63V25.4516C107.63 23.6781 106.979 22.7924 105.678 22.7941C104.062 22.7941 103.254 23.9713 103.254 26.3263V36.0531H98.1383V18.7536H103.254V21.0094C103.3 20.9415 103.356 20.8521 103.425 20.7404C103.572 20.5265 103.735 20.3237 103.912 20.1335C104.168 19.8443 104.456 19.5851 104.77 19.3605C105.164 19.097 105.594 18.8925 106.047 18.7536C106.6 18.573 107.179 18.4826 107.761 18.4858C108.343 18.4784 108.923 18.5643 109.478 18.74C109.919 18.8698 110.334 19.0738 110.706 19.3444C110.978 19.5518 111.231 19.7824 111.463 20.0337C111.634 20.2163 111.781 20.4203 111.9 20.6406L112.002 20.8768C112.048 20.8082 112.108 20.7248 112.187 20.6232C112.361 20.4226 112.546 20.2316 112.741 20.0517C113.029 19.7734 113.345 19.5255 113.684 19.3122C114.105 19.0623 114.558 18.8706 115.03 18.7412C115.598 18.5723 116.187 18.4866 116.779 18.4871C120.415 18.4871 122.233 20.5858 122.232 24.7834V36.0581L117.12 36.0519ZM79.5413 36.0519V19.0543H83.1753V22.1184C83.2133 21.99 83.2643 21.8658 83.3277 21.7477C83.4904 21.4574 83.6702 21.1775 83.8661 20.9084C84.1319 20.5201 84.4482 20.1686 84.8068 19.8639C85.2491 19.5224 85.7442 19.2554 86.2725 19.0735C86.917 18.8353 87.6051 18.7379 88.2904 18.7883L87.9876 22.7241C87.3544 22.6228 86.7064 22.669 86.0938 22.8586C85.4812 23.0482 84.9205 23.3764 84.4551 23.8176C84.0142 24.2938 83.6738 24.8539 83.4544 25.4647C83.2351 26.0755 83.1413 26.7242 83.1786 27.3721V36.0556L79.5413 36.0519Z" fill="white"/>
</svg>
