<svg width="103" height="27" viewBox="0 0 103 27" fill="none" xmlns="http://www.w3.org/2000/svg">
<g clip-path="url(#clip0_1101_2446)">
<path d="M0.838925 23.896C0.572172 23.7412 0.352748 23.5165 0.204358 23.2462C0.0559676 22.9759 -0.0157626 22.6701 -0.00308528 22.362C-0.00550185 22.126 0.0392664 21.892 0.128568 21.6736C0.217869 21.4552 0.349917 21.2568 0.51695 21.0902C0.683982 20.9235 0.882635 20.7919 1.10124 20.7031C1.31984 20.6143 1.55399 20.57 1.78993 20.573C2.12396 20.5743 2.45194 20.6622 2.74193 20.828C4.37423 21.9795 6.30833 22.6272 8.30493 22.691C10.2049 22.691 11.3049 21.891 11.3049 20.609V20.536C11.3049 19.036 9.25493 18.528 6.98593 17.836C4.13093 17.036 0.946927 15.864 0.946927 12.175V12.102C0.946927 8.44997 3.98492 6.222 7.82692 6.222C9.94815 6.25334 12.0311 6.79163 13.9019 7.79198C14.2185 7.94439 14.4858 8.18273 14.6734 8.47978C14.861 8.77684 14.9613 9.12067 14.9629 9.472C14.9644 9.71086 14.9177 9.94756 14.8257 10.168C14.7338 10.3885 14.5984 10.5881 14.4276 10.7552C14.2569 10.9222 14.0542 11.0531 13.8318 11.1402C13.6094 11.2273 13.3717 11.2687 13.1329 11.262C12.8261 11.2677 12.5232 11.1921 12.2549 11.043C10.8609 10.2679 9.30941 9.81865 7.71692 9.72899C5.99692 9.72899 5.00892 10.529 5.00892 11.629V11.702C5.00892 13.126 7.09492 13.711 9.36392 14.441C12.1819 15.318 15.3639 16.596 15.3639 20.065V20.138C15.3639 24.192 12.2169 26.2 8.19092 26.2C5.56496 26.1806 3.00422 25.3799 0.834927 23.9" fill="white"/>
<path d="M27.0419 16.2998V16.2268C27.1232 13.5552 28.2391 11.0198 30.1542 9.15537C32.0694 7.29098 34.6339 6.24351 37.3066 6.23404C39.9794 6.22457 42.5513 7.25382 44.4796 9.10459C46.4079 10.9554 47.5418 13.4829 47.6419 16.1538V16.2268C47.6357 17.5704 47.3613 18.8993 46.8347 20.1355C46.3082 21.3717 45.5401 22.4903 44.5755 23.4257C43.611 24.3611 42.4693 25.0945 41.2176 25.5829C39.9658 26.0713 38.6291 26.3048 37.2859 26.2698C35.954 26.3049 34.6286 26.073 33.3877 25.5879C32.1468 25.1028 31.0155 24.3742 30.0605 23.445C29.1056 22.5159 28.3463 21.405 27.8274 20.1779C27.3084 18.9507 27.0403 17.6321 27.0389 16.2998M43.2149 16.2998V16.2268C43.2474 15.4263 43.1184 14.6275 42.8355 13.8779C42.5526 13.1284 42.1216 12.4435 41.5683 11.8641C41.0149 11.2848 40.3506 10.8228 39.6149 10.5057C38.8791 10.1887 38.0871 10.0231 37.2859 10.0188C33.7359 10.0188 31.4669 12.7948 31.4669 16.1548V16.2278C31.4371 17.0228 31.567 17.8157 31.849 18.5597C32.131 19.3036 32.5593 19.9834 33.1087 20.5588C33.6581 21.1343 34.3173 21.5937 35.0473 21.9099C35.7773 22.2262 36.5634 22.3927 37.3589 22.3998C38.1516 22.41 38.938 22.2572 39.6692 21.9511C40.4005 21.6449 41.0611 21.1919 41.6101 20.62C42.1591 20.0481 42.5848 19.3696 42.8609 18.6264C43.1369 17.8833 43.2574 17.0914 43.2149 16.2998Z" fill="white"/>
<path d="M53.5001 23.8038V14.5118C53.489 13.4557 53.866 12.4324 54.5594 11.6359C55.2529 10.8394 56.2146 10.3252 57.2621 10.1908C57.8557 10.1225 58.4572 10.1803 59.0269 10.3606C59.5967 10.5409 60.122 10.8395 60.5683 11.2368C61.0147 11.6342 61.3721 12.1213 61.6171 12.6664C61.8621 13.2115 61.9892 13.8021 61.9901 14.3998V23.7998C61.9903 24.0903 62.0478 24.3778 62.1592 24.6461C62.2706 24.9144 62.4338 25.1581 62.6393 25.3633C62.8449 25.5685 63.0889 25.7312 63.3574 25.8422C63.6259 25.9531 63.9136 26.01 64.2041 26.0098C64.4946 26.01 64.7822 25.9531 65.0507 25.8422C65.3192 25.7312 65.5632 25.5685 65.7688 25.3633C65.9744 25.1581 66.1375 24.9144 66.2489 24.6461C66.3603 24.3778 66.4178 24.0903 66.4181 23.7998V14.8358C66.4154 12.5378 65.5001 10.3351 63.8734 8.71198C62.2468 7.08888 60.042 6.17837 57.744 6.18076C55.4461 6.17837 53.2413 7.08888 51.6147 8.71198C49.988 10.3351 49.0727 12.5378 49.0701 14.8358V23.7998C49.0703 24.0903 49.1278 24.3778 49.2392 24.6461C49.3506 24.9144 49.5138 25.1581 49.7194 25.3633C49.9249 25.5685 50.1689 25.7312 50.4374 25.8422C50.7059 25.9531 50.9936 26.01 51.2841 26.0098C51.8704 26.0108 52.4331 25.7791 52.8487 25.3654C53.2642 24.9518 53.4985 24.3901 53.5001 23.8038Z" fill="white"/>
<path d="M25.2903 11.2949C25.8111 11.3075 26.3156 11.113 26.693 10.7539C27.0704 10.3949 27.2899 9.90068 27.3033 9.37991C27.2902 8.85897 27.0708 8.36455 26.6933 8.00528C26.3159 7.64601 25.8112 7.45129 25.2903 7.46391H21.8903V4.34792C21.8607 3.78066 21.6146 3.24639 21.2026 2.85532C20.7907 2.46425 20.2443 2.24622 19.6763 2.24622C19.1082 2.24622 18.5619 2.46425 18.1499 2.85532C17.738 3.24639 17.4918 3.78066 17.4623 4.34792V19.8599H17.4733C17.5674 21.5612 18.3004 23.1641 19.5256 24.3481C20.7508 25.5322 22.3778 26.21 24.0813 26.2459C24.1806 26.2608 24.2809 26.2689 24.3813 26.2699H25.2443C25.7769 26.2828 26.2928 26.0837 26.6787 25.7164C27.0646 25.349 27.2889 24.8435 27.3023 24.3109C27.2887 23.7785 27.0643 23.2732 26.6784 22.9061C26.2925 22.539 25.7767 22.34 25.2443 22.3529H24.6443C23.9262 22.3642 23.233 22.0905 22.7163 21.5918C22.1996 21.093 21.9015 20.4099 21.8873 19.6919V11.2919L25.2903 11.2949Z" fill="white"/>
<path d="M75.2513 15.8688C75.2513 16.3727 75.4515 16.8559 75.8078 17.2123C76.1641 17.5686 76.6474 17.7688 77.1513 17.7688H84.3813C84.8852 17.7688 85.3685 17.5686 85.7248 17.2123C86.0811 16.8559 86.2813 16.3727 86.2813 15.8688C86.2813 10.3538 82.5923 6.14775 77.4643 6.14775C76.1488 6.13477 74.8444 6.38852 73.6298 6.89369C72.4151 7.39887 71.3155 8.145 70.3972 9.08699C69.479 10.029 68.7611 11.1473 68.2871 12.3745C67.8131 13.6016 67.5927 14.9121 67.6393 16.2268V16.2998C67.6297 17.6208 67.8847 18.9305 68.3891 20.1515C68.8935 21.3725 69.6373 22.4802 70.5765 23.4093C71.5157 24.3384 72.6313 25.0702 73.8577 25.5614C75.0841 26.0527 76.3964 26.2936 77.7173 26.2698C80.0466 26.2915 82.3136 25.5175 84.1433 24.0758C84.3438 23.906 84.5088 23.6985 84.6291 23.465C84.7493 23.2314 84.8224 22.9765 84.8441 22.7147C84.8658 22.4529 84.8358 22.1895 84.7557 21.9393C84.6756 21.6892 84.547 21.4572 84.3773 21.2568C84.2075 21.0563 84 20.8912 83.7665 20.771C83.5329 20.6507 83.278 20.5777 83.0162 20.5559C82.7545 20.5342 82.491 20.5642 82.2408 20.6443C81.9907 20.7244 81.7587 20.853 81.5583 21.0228C80.517 21.9345 79.1731 22.4252 77.7893 22.3988C77.0002 22.3849 76.2218 22.2129 75.5002 21.8931C74.7787 21.5732 74.1286 21.112 73.5883 20.5366C73.0481 19.9612 72.6286 19.2833 72.3549 18.5431C72.0811 17.8028 71.9584 17.0152 71.9943 16.2268V16.1538C71.9943 12.7938 73.9013 10.0177 77.3943 10.0177C79.7003 10.0177 81.3203 11.6707 81.9533 13.9697H77.1533C76.9037 13.9695 76.6565 14.0184 76.4258 14.1137C76.1951 14.209 75.9855 14.3488 75.8088 14.5252C75.6322 14.7015 75.492 14.911 75.3964 15.1415C75.3007 15.372 75.2514 15.6192 75.2513 15.8688Z" fill="white"/>
<path d="M92.4185 4.569V4.53799C92.4485 3.40344 92.9193 2.32521 93.731 1.53195C94.5427 0.738683 95.6315 0.292756 96.7664 0.288724C97.9014 0.284692 98.9932 0.722879 99.8105 1.51036C100.628 2.29784 101.106 3.37268 101.144 4.50699V4.53799C101.142 5.10735 101.026 5.67045 100.802 6.19424C100.579 6.71804 100.254 7.19198 99.8448 7.58824C99.436 7.9845 98.9521 8.2951 98.4216 8.50181C97.8911 8.70852 97.3246 8.80718 96.7554 8.79199C96.1914 8.80694 95.63 8.70883 95.1044 8.50343C94.5789 8.29803 94.0997 7.9895 93.6953 7.59604C93.2908 7.20257 92.9692 6.73212 92.7494 6.21241C92.5296 5.69271 92.416 5.13426 92.4154 4.56999M99.2664 4.56999V4.539C99.2801 4.20001 99.2254 3.86172 99.1056 3.54432C98.9857 3.22693 98.8032 2.93691 98.5689 2.69157C98.3346 2.44623 98.0532 2.2506 97.7416 2.11631C97.4301 1.98203 97.0947 1.91186 96.7554 1.90999C96.4195 1.90774 96.0867 1.9745 95.7777 2.10614C95.4687 2.23777 95.19 2.43147 94.9589 2.67523C94.7278 2.91899 94.5492 3.20763 94.4342 3.52324C94.3192 3.83884 94.2703 4.1747 94.2904 4.50999V4.541C94.2777 4.87811 94.3328 5.21434 94.4525 5.52975C94.5722 5.84516 94.754 6.13332 94.9872 6.37712C95.2204 6.62092 95.5001 6.81539 95.8099 6.94902C96.1196 7.08264 96.4531 7.15269 96.7904 7.155C97.1261 7.15931 97.4591 7.09465 97.7687 6.96502C98.0784 6.8354 98.3582 6.64355 98.5907 6.40139C98.8232 6.15924 99.0035 5.87191 99.1204 5.55723C99.2373 5.24255 99.2884 4.90721 99.2704 4.57199" fill="white"/>
<path d="M84.5457 4.55499V4.532C84.5356 3.96636 84.6402 3.40454 84.8533 2.88045C85.0663 2.35636 85.3833 1.88086 85.7851 1.48265C86.187 1.08445 86.6654 0.771787 87.1914 0.563539C87.7174 0.355291 88.2802 0.255778 88.8457 0.270997C89.8318 0.230064 90.8027 0.52478 91.5997 1.107C91.7095 1.19166 91.7985 1.30043 91.8597 1.42491C91.9209 1.5494 91.9527 1.68628 91.9527 1.825C91.9526 1.94193 91.9293 2.05768 91.8841 2.16554C91.8389 2.2734 91.7727 2.37123 91.6895 2.45336C91.6063 2.53548 91.5076 2.60027 91.3991 2.64398C91.2906 2.68769 91.1746 2.70945 91.0577 2.70799C90.8635 2.70555 90.6747 2.64378 90.5167 2.53099C90.0381 2.15051 89.445 1.94295 88.8337 1.942C88.5066 1.9484 88.1843 2.02047 87.8856 2.15392C87.587 2.28736 87.3182 2.47947 87.0953 2.71883C86.8723 2.95818 86.6997 3.2399 86.5878 3.54726C86.4759 3.85461 86.4268 4.18133 86.4437 4.508V4.53099C86.4244 4.85942 86.4715 5.18837 86.5822 5.49817C86.6929 5.80797 86.865 6.09225 87.0881 6.33403C87.3112 6.57581 87.5808 6.77012 87.8807 6.90534C88.1806 7.04055 88.5048 7.11389 88.8337 7.12099C89.4898 7.13448 90.1274 6.90352 90.6227 6.47299C90.7063 6.39729 90.8042 6.33921 90.9108 6.30219C91.0173 6.26516 91.1302 6.24997 91.2427 6.25751C91.3552 6.26505 91.4651 6.29517 91.5657 6.34607C91.6664 6.39698 91.7557 6.46763 91.8284 6.5538C91.9012 6.63998 91.9558 6.73991 91.9891 6.84766C92.0224 6.9554 92.0337 7.06875 92.0222 7.18094C92.0108 7.29313 91.9768 7.40188 91.9224 7.50067C91.868 7.59947 91.7943 7.6863 91.7057 7.756C91.0814 8.28855 90.3189 8.63323 89.5066 8.75009C88.6944 8.86695 87.8657 8.75119 87.1166 8.41625C86.3674 8.0813 85.7286 7.54088 85.2741 6.85765C84.8196 6.17442 84.5681 5.37637 84.5487 4.556L84.5457 4.55499Z" fill="white"/>
<path d="M102.047 8.64175C102.573 8.64175 102.999 8.21552 102.999 7.68975C102.999 7.16397 102.573 6.73775 102.047 6.73775C101.521 6.73775 101.095 7.16397 101.095 7.68975C101.095 8.21552 101.521 8.64175 102.047 8.64175Z" fill="white"/>
</g>
<defs>
<clipPath id="clip0_1101_2446">
<rect width="102.996" height="26" fill="white" transform="translate(0.00195312 0.269989)"/>
</clipPath>
</defs>
</svg>
